<?xml version="1.0" encoding="UTF-8"?>
<svg id="Layer_2" data-name="Layer 2" xmlns="http://www.w3.org/2000/svg" viewBox="0 0 804.36 653.53">
  <defs>
    <style>
      .cls-1 {
        fill: #09090b;
      }

      .cls-2 {
        fill: #fcbf7c;
      }

      .cls-3 {
        fill: #047857;
      }
    </style>
  </defs>
  <g id="Layer_1-2" data-name="Layer 1">
    <g id="uuid-8ef4381d-a922-465e-83f9-b456b68b7bf2" data-name="Layer 1-2">
      <path class="cls-1" d="M804.36,268.11v-50.27h-117.24v-33.52h-16.77v-33.5h-16.75v-67.07h-16.75v-16.75h-16.77v-33.48h-16.75V0H150.81v16.77h-16.75v16.75h-16.75v16.75h-16.77v16.77h-16.78v16.72h-16.73v16.75h-16.75v16.77h-16.75v16.75h-16.77v16.77H0v418.96h50.27v50.29h33.49v16.75h16.75v16.75h452.49v-33.5h67.02v-50.29h33.52v-67.02h50.27v-134.06h-50.27v-100.55h150.83ZM201.08,469.21h-50.27v-167.51h50.27v167.51ZM67.02,201.09v-33.59h16.73v-16.75h16.75v-16.7h16.77v-16.75h16.75v-16.77h16.75v-16.79h16.73v-16.75h16.75v-16.73h368.74v16.77h33.52v33.5h16.75v100.55H67.02h0ZM552.99,553h-150.82v-33.52h150.82v33.52ZM653.53,452.46h-301.63v-50.27h-33.52v-83.75h33.52v-50.32h251.36v150.82h50.27v33.52Z"/>
      <rect class="cls-1" x="452.44" y="318.4" width="50.29" height="83.79"/>
      <rect class="cls-2" x="402.17" y="519.48" width="150.83" height="33.52"/>
      <path class="cls-2" d="M603.26,418.94v-150.82h-251.36v50.29h-33.52v83.75h33.52v50.27h301.63v-33.49h-50.27ZM452.44,318.4h50.29v83.75h-50.29v-83.75Z"/>
      <rect class="cls-2" x="150.81" y="301.63" width="50.27" height="167.57"/>
      <path class="cls-3" d="M603.26,100.54v100.55H67.02v-33.52h16.77v-16.75h16.75v-16.77h16.77v-16.75h16.75v-16.77h16.75v-16.75h16.77v-16.75h16.75v-16.77h368.67v16.77h33.52v33.5h16.75Z"/>
    </g>
  </g>
</svg>