<?xml version="1.0" encoding="UTF-8"?>
<svg id="Layer_2" data-name="Layer 2" xmlns="http://www.w3.org/2000/svg" viewBox="0 0 1919.43 786.55">
  <defs>
    <style>
      .cls-1, .cls-2 {
        fill: #09090b;
      }

      .cls-2 {
        fill-rule: evenodd;
      }

      .cls-3 {
        fill: #fcbf7c;
      }

      .cls-4 {
        fill: #047857;
      }
    </style>
  </defs>
  <g id="Layer_1-2" data-name="Layer 1">
    <g id="uuid-82f7749b-bc01-4045-b83e-80fc51148c44" data-name="Layer 1-2">
      <path class="cls-1" d="M804.36,401.13v-50.27h-117.24v-33.52h-16.77v-33.5h-16.75v-67.07h-16.75v-16.75h-16.77v-33.48h-16.75v-33.52H150.81v16.77h-16.75v16.75h-16.75v16.75h-16.77v16.77h-16.78v16.72h-16.73v16.75h-16.75v16.77h-16.75v16.75h-16.77v16.77H0v418.96h50.27v50.29h33.49v16.75h16.75v16.75h452.49v-33.5h67.02v-50.29h33.52v-67.02h50.27v-134.06h-50.27v-100.55h150.83ZM201.08,602.23h-50.27v-167.51h50.27v167.51ZM67.02,334.12v-33.59h16.73v-16.75h16.75v-16.7h16.77v-16.75h16.75v-16.77h16.75v-16.79h16.73v-16.75h16.75v-16.73h368.74v16.77h33.52v33.5h16.75v100.55H67.02h0ZM552.99,686.02h-150.82v-33.52h150.82v33.52ZM653.53,585.48h-301.63v-50.27h-33.52v-83.75h33.52v-50.32h251.36v150.82h50.27v33.52Z"/>
      <rect class="cls-1" x="452.44" y="451.42" width="50.29" height="83.79"/>
      <rect class="cls-3" x="402.17" y="652.5" width="150.83" height="33.52"/>
      <path class="cls-3" d="M603.26,551.96v-150.82h-251.36v50.29h-33.52v83.75h33.52v50.27h301.63v-33.49h-50.27ZM452.44,451.42h50.29v83.75h-50.29v-83.75Z"/>
      <rect class="cls-3" x="150.81" y="434.65" width="50.27" height="167.57"/>
      <path class="cls-4" d="M603.26,233.56v100.55H67.02v-33.52h16.77v-16.75h16.75v-16.77h16.77v-16.75h16.75v-16.77h16.75v-16.75h16.77v-16.75h16.75v-16.77h368.67v16.77h33.52v33.5h16.75Z"/>
    </g>
    <path class="cls-1" d="M1094.46,465.72l-1.82-19.43-19.43,1.82-1.82-19.42-19.42,1.82-5.47-58.28,19.42-1.82-1.82-19.43,19.43-1.82-1.82-19.43,77.71-7.3,1.83,19.43,19.42-1.82,1.82,19.43-38.85,3.65-1.82-19.43-38.85,3.65,1.82,19.43-19.43,1.82,5.47,58.28,19.43-1.82,1.82,19.42,38.85-3.65-1.82-19.42,38.85-3.65,1.83,19.43-19.43,1.82,1.82,19.43-77.71,7.3h0Z"/>
    <path class="cls-1" d="M1230.45,452.95l-1.82-19.43-19.43,1.82-5.47-58.28,19.43-1.82-1.82-19.43,97.13-9.12,1.82,19.43,19.43-1.83,5.47,58.28-19.43,1.82,1.82,19.43-97.13,9.12h0ZM1248.05,431.7l58.28-5.47-5.47-58.28-58.28,5.47,5.47,58.28h0Z"/>
    <path class="cls-1" d="M1385.86,438.36l-1.82-19.43-19.43,1.82-7.3-77.71,38.85-3.65,7.3,77.71,58.28-5.47-7.3-77.71,38.85-3.65,9.12,97.14-116.56,10.94Z"/>
    <path class="cls-1" d="M1572.83,342.41l19.43-1.82,1.82,19.43-19.43,1.82,5.47,58.28-38.85,3.65-9.12-97.14,38.85-3.65,1.82,19.43h0ZM1648.72,315.69l1.82,19.43-58.28,5.47-1.82-19.43,58.28-5.47Z"/>
    <path class="cls-1" d="M1735.54,405.53l-7.3-77.71-38.85,3.65-1.82-19.43,38.85-3.65-3.65-38.85,38.85-3.65,3.65,38.85,38.85-3.65,1.82,19.43-38.85,3.65,7.3,77.71-38.85,3.65Z"/>
    <path class="cls-1" d="M1050.54,274.82l-9.58-101.99,29.14-2.74,4.1,43.71,43.71-4.1-4.1-43.71,29.14-2.73,9.58,101.99-29.14,2.74-4.1-43.71-43.71,4.1,4.1,43.71-29.14,2.74Z"/>
    <path class="cls-1" d="M1202.6,172.35l-1.37-14.57,29.14-2.73,1.37,14.57-29.14,2.73ZM1181.67,262.5l-1.37-14.57,29.14-2.74-4.1-43.71-14.57,1.37-1.37-14.57,43.71-4.1,5.47,58.28,29.14-2.74,1.37,14.57-87.42,8.21h0Z"/>
    <path class="cls-1" d="M1414.79,240.61l-1.37-14.57,29.14-2.73-6.84-72.85-29.14,2.73-1.37-14.57,87.42-8.21,1.37,14.57-29.14,2.73,6.84,72.85,29.14-2.73,1.37,14.57-87.42,8.21h0Z"/>
    <path class="cls-1" d="M1540.45,170.02l-4.1-43.71,29.14-2.73,4.1,43.71-29.14,2.74Z"/>
    <path class="cls-1" d="M1633.34,220.09l-6.84-72.85,87.42-8.21,1.37,14.57,14.57-1.37,5.47,58.28-29.14,2.74-5.47-58.28-14.57,1.37,5.47,58.28-29.14,2.73-5.47-58.28-14.57,1.37,5.47,58.28-14.57,1.37h0Z"/>
    <path class="cls-2" d="M817.22,543.24l-42.77,4.02,4.02,42.77,42.77-4.02-4.02-42.77Z"/>
    <path class="cls-2" d="M852.42,500.74l-42.77,4.02,4.02,42.77,42.77-4.02-4.02-42.77Z"/>
    <path class="cls-2" d="M891.28,497.09l-42.77,4.02,4.02,42.77,42.77-4.02-4.02-42.77Z"/>
    <path class="cls-2" d="M858.33,539.42l-42.77,4.02,4.02,42.77,42.77-4.02-4.02-42.77h0Z"/>
    <path class="cls-2" d="M888.54,467.95l-42.77,4.02,4.02,42.77,42.77-4.02-4.02-42.77Z"/>
    <path class="cls-2" d="M930.13,493.44l-42.77,4.02,4.02,42.77,42.77-4.02-4.02-42.77Z"/>
    <path class="cls-2" d="M968.98,489.8l-42.77,4.02,4.02,42.77,42.77-4.02-4.02-42.77Z"/>
    <path class="cls-2" d="M1007.84,505.66l-42.77,4.02,4.02,42.77,42.77-4.02-4.02-42.77Z"/>
    <path class="cls-2" d="M1047.43,517.34l-42.77,4.02,4.02,42.77,42.77-4.02-4.02-42.77Z"/>
    <path class="cls-2" d="M914.03,426.36l-42.77,4.02,4.02,42.77,42.77-4.02-4.02-42.77h0Z"/>
    <path class="cls-2" d="M929.81,385.69l-42.77,4.02,4.02,42.77,42.77-4.02-4.02-42.77Z"/>
    <path class="cls-2" d="M945.59,345.01l-42.77,4.02,4.02,42.77,42.77-4.02-4.02-42.77Z"/>
    <path class="cls-2" d="M961.37,304.33l-42.77,4.02,4.02,42.77,42.77-4.02-4.02-42.77Z"/>
    <path class="cls-2" d="M967.43,264.56l-42.77,4.02,4.02,42.77,42.77-4.02-4.02-42.77h0Z"/>
    <path class="cls-2" d="M973.5,224.8l-42.77,4.02,4.02,42.77,42.77-4.02-4.02-42.77Z"/>
    <path class="cls-2" d="M979.56,185.03l-42.77,4.02,4.02,42.77,42.77-4.02-4.02-42.77Z"/>
    <path class="cls-2" d="M995.34,144.36l-42.77,4.02,4.02,42.77,42.77-4.02-4.02-42.77h0Z"/>
    <path class="cls-2" d="M1011.12,103.68l-42.77,4.02,4.02,42.77,42.77-4.02-4.02-42.77Z"/>
    <path class="cls-2" d="M1845.62,26.73l-42.77,4.02,4.02,42.77,42.77-4.02-4.02-42.77Z"/>
    <path class="cls-2" d="M1880.28,395.84l-44.92,4.22,4.62,49.16,44.92-4.22-4.62-49.16h0Z"/>
    <path class="cls-2" d="M1888.13,61.94l-42.77,4.02,31.3,333.38,42.77-4.02s-31.3-333.38-31.3-333.38Z"/>
    <path class="cls-2" d="M1047.24,70.89l-42.77,4.02,4.02,42.77,42.77-4.02-4.02-42.77Z"/>
    <path class="cls-2" d="M1802.23,0l-758.9,71.26,4.02,42.77,758.9-71.26-4.02-42.77Z"/>
    <path class="cls-2" d="M1849.28,443.53l-802.4,75.34,4.02,42.77,802.4-75.34-4.02-42.77h0Z"/>
  </g>
</svg>